HIERARCHY
ROOT SpineBase
{
  OFFSET 0.000000 0.000000 0.000000
  CHANNELS 6 Xposition Yposition Zposition Zrotation Xrotation Yrotation
  JOINT SpineMid
  {
    OFFSET -0.000000 31.093613 0.000000
    CHANNELS 3 Zrotation Xrotation Yrotation
    JOINT SpineShoulder
    {
      OFFSET 0.494285 23.063964 -0.682962
      CHANNELS 3 Zrotation Xrotation Yrotation
      JOINT Neck
      {
        OFFSET 0.287441 7.628885 -0.608126
        CHANNELS 3 Zrotation Xrotation Yrotation
        JOINT Head
        {
          OFFSET 6.070174 10.534650 4.662111
          CHANNELS 3 Zrotation Xrotation Yrotation
          End Site
          {
            OFFSET 0 0 0
          }
        }
      }
      JOINT ShoulderLeft
      {
        OFFSET -7.996777 -2.206087 -14.486457
        CHANNELS 3 Zrotation Xrotation Yrotation
        JOINT ElbowLeft
        {
          OFFSET -4.982976 -22.156540 -7.085896
          CHANNELS 3 Zrotation Xrotation Yrotation
          JOINT WristLeft
          {
            OFFSET 6.412111 -21.982138 -1.223347
            CHANNELS 3 Zrotation Xrotation Yrotation
            JOINT HandLeft
            {
              OFFSET 1.901856 -6.092911 3.055467
              CHANNELS 3 Zrotation Xrotation Yrotation
              JOINT HandTipLeft
              {
                OFFSET 2.853453 -8.955758 -1.014814
                CHANNELS 3 Zrotation Xrotation Yrotation
                End Site
                {
                  OFFSET 0 0 0
                }
              }
              JOINT ThumbLeft
              {
                OFFSET 2.826582 2.262044 -1.628645
                CHANNELS 3 Zrotation Xrotation Yrotation
                End Site
                {
                  OFFSET 0 0 0
                }
              }
            }
          }
        }
      }
      JOINT ShoulderRight
      {
        OFFSET 8.391439 -5.465265 15.557891
        CHANNELS 3 Zrotation Xrotation Yrotation
        JOINT ElbowRight
        {
          OFFSET 0.712306 -30.819200 2.581061
          CHANNELS 3 Zrotation Xrotation Yrotation
          JOINT WristRight
          {
            OFFSET 7.402015 -24.860862 -9.425630
            CHANNELS 3 Zrotation Xrotation Yrotation
            JOINT HandRight
            {
              OFFSET -2.013480 -3.131919 -2.337733
              CHANNELS 3 Zrotation Xrotation Yrotation
              JOINT HandTipRight
              {
                OFFSET -0.090741 -9.623822 -0.716263
                CHANNELS 3 Zrotation Xrotation Yrotation
                End Site
                {
                  OFFSET 0 0 0
                }
              }
              JOINT ThumbRight
              {
                OFFSET 2.563176 1.018082 -0.323126
                CHANNELS 3 Zrotation Xrotation Yrotation
                End Site
                {
                  OFFSET 0 0 0
                }
              }
            }
          }
        }
      }
    }
  }
  JOINT HipLeft
  {
    OFFSET -2.540575 2.605053 -8.481427
    CHANNELS 3 Zrotation Xrotation Yrotation
    JOINT KneeLeft
    {
      OFFSET -8.444246 -36.301112 -6.696647
      CHANNELS 3 Zrotation Xrotation Yrotation
      JOINT AnkleLeft
      {
        OFFSET -7.809218 -35.955449 6.774571
        CHANNELS 3 Zrotation Xrotation Yrotation
        JOINT FootLeft
        {
          OFFSET 9.423405 -3.185568 -8.320035
          CHANNELS 3 Zrotation Xrotation Yrotation
          End Site
          {
            OFFSET 0 0 0
          }
        }
      }
    }
  }
  JOINT HipRight
  {
    OFFSET 3.667624 -0.144995 1.415022
    CHANNELS 3 Zrotation Xrotation Yrotation
    JOINT KneeRight
    {
      OFFSET 0.196321 -39.104459 2.681875
      CHANNELS 3 Zrotation Xrotation Yrotation
      JOINT AnkleRight
      {
        OFFSET -9.303183 -33.207408 6.135443
        CHANNELS 3 Zrotation Xrotation Yrotation
        JOINT FootRight
        {
          OFFSET 5.550404 -5.553894 -3.999802
          CHANNELS 3 Zrotation Xrotation Yrotation
          End Site
          {
            OFFSET 0 0 0
          }
        }
      }
    }
  }
}
MOTION
Frames: 9
Frame Time: 0.033333
-40.595097 78.047270 265.535878 0.000000 0.000000 -57.899304 -0.000000 0.000000 57.899304 -0.000000 0.000000 0.000000 -0.000000 0.000000 0.000000 0.000000 0.000000 0.000000 -0.000000 0.000000 0.000000 -0.000000 0.000000 0.000000 -0.000000 0.000000 0.000000 -0.000000 0.000000 0.000000 0.000000 0.000000 0.000000 0.000000 0.000000 0.000000 -0.000000 0.000000 0.000000 -0.000000 0.000000 0.000000 -0.000000 0.000000 0.000000 -0.000000 0.000000 0.000000 0.000000 0.000000 0.000000 0.000000 0.000000 0.000000 -0.000000 0.000000 57.899304 -0.000000 0.000000 0.000000 -0.000000 0.000000 0.000000 0.000000 0.000000 0.000000 -0.000000 0.000000 57.899304 -0.000000 0.000000 0.000000 -0.000000 0.000000 0.000000 0.000000 0.000000 0.000000
-39.937179 78.067115 266.063082 0.029332 0.063939 -57.927016 0.038605 -0.058806 57.927020 -0.000000 0.000000 0.000000 1.065951 0.071759 -0.516387 0.000000 0.000000 0.000000 -0.000000 0.000000 0.000000 0.802248 -0.775307 -0.264935 -1.548941 2.988415 0.630367 2.848895 -1.834340 -0.353416 0.000000 0.000000 0.000000 0.000000 0.000000 0.000000 -0.000000 0.000000 0.000000 -0.000000 0.000000 0.000000 3.121431 -1.377675 -1.445422 -7.043372 4.407921 1.963822 0.000000 0.000000 0.000000 0.000000 0.000000 0.000000 0.038605 -0.058806 57.927020 -0.555219 0.666391 -0.246130 0.558114 -0.663968 0.252593 0.000000 0.000000 0.000000 0.038605 -0.058806 57.927020 -0.000000 0.000000 0.000000 7.506379 7.897206 1.768223 0.000000 0.000000 0.000000
-39.322166 78.090525 266.535868 0.052719 0.180393 -57.884314 0.124761 -0.140554 57.884384 -0.000000 0.000000 0.000000 2.057613 0.150890 -1.010187 0.000000 0.000000 0.000000 -0.000000 0.000000 0.000000 1.350629 -1.374384 -0.458617 -2.748219 5.417348 1.180561 5.141773 -3.317666 -0.492345 0.000000 0.000000 0.000000 0.000000 0.000000 0.000000 -0.000000 0.000000 0.000000 -1.024134 0.306135 0.482973 6.915001 -2.819850 -3.292636 -13.822759 8.159487 4.279543 0.000000 0.000000 0.000000 0.000000 0.000000 0.000000 0.124761 -0.140554 57.884384 -1.068751 1.293613 -0.470328 1.079605 -1.284569 0.494497 0.000000 0.000000 0.000000 0.124761 -0.140554 57.884384 0.324157 1.163472 -0.270082 11.907155 12.050022 2.896321 0.000000 0.000000 0.000000
-38.750059 78.117500 266.954236 0.070164 0.349443 -57.770763 0.258183 -0.245713 57.771103 1.019741 0.266557 0.068910 1.955768 -0.029978 -1.541416 0.000000 0.000000 0.000000 -0.115054 0.304685 -0.491687 0.767408 -2.366519 -0.159445 -3.600634 7.337247 1.632344 6.849700 -4.477451 -0.499955 0.000000 0.000000 0.000000 0.000000 0.000000 0.000000 -1.020072 -0.265288 -0.073644 -1.398937 0.507717 0.689118 9.694506 -3.829611 -4.810960 -19.986187 11.115030 6.702180 0.000000 0.000000 0.000000 0.000000 0.000000 0.000000 -0.147026 -1.046791 57.950753 -0.639353 1.965492 -0.855752 1.562133 -1.860051 0.723652 0.000000 0.000000 0.000000 -0.326303 -0.890252 57.707287 1.198262 1.530399 -0.353709 14.915248 15.029618 3.416000 0.000000 0.000000 0.000000
-38.220856 78.148038 267.318187 0.081664 0.571198 -57.586840 0.664626 0.536503 57.607555 0.345311 0.225186 0.057352 2.584198 -0.189024 -1.980675 0.000000 0.000000 0.000000 -0.106920 0.205767 -0.606406 0.615269 -2.781328 -0.122714 -4.107020 8.789396 1.972656 7.947456 -5.343642 -0.440841 0.000000 0.000000 0.000000 0.000000 0.000000 0.000000 -1.236815 -0.521253 -0.084516 -1.679520 0.745148 0.871233 11.997640 -4.543447 -6.247743 -25.134157 13.221035 8.964165 0.000000 0.000000 0.000000 0.000000 0.000000 0.000000 0.014978 -1.427438 57.834548 -0.839260 2.630353 -1.103313 2.003608 -2.388976 0.938128 0.000000 0.000000 0.000000 -0.287546 -1.261475 57.500174 1.396836 2.011151 -0.480937 16.871321 16.833014 3.793888 0.000000 0.000000 0.000000
-37.734558 78.182142 267.627720 0.087214 0.845789 -57.333936 0.706244 0.607455 57.352948 0.410930 0.284508 0.060410 3.202298 -0.420221 -2.378440 0.000000 0.000000 0.000000 -0.075869 0.006468 -0.695320 0.263428 -3.015600 -0.051139 -4.266789 9.805448 2.192848 8.415482 -5.944576 -0.361834 0.000000 0.000000 0.000000 0.000000 0.000000 0.000000 -1.391913 -0.861732 -0.088865 -1.862943 1.021364 1.028558 13.827584 -4.960610 -7.605734 -28.886798 14.498458 10.830652 0.000000 0.000000 0.000000 0.000000 0.000000 0.000000 0.278958 -1.827194 57.654975 -1.029323 3.295891 -1.332120 2.402201 -2.870211 1.136158 0.000000 0.000000 0.000000 -0.177494 -1.671176 57.223567 1.491698 2.470733 -0.609656 18.097869 17.800575 4.127968 0.000000 0.000000 0.000000
-37.268940 78.233752 267.912845 0.020759 1.270667 -57.067805 0.641548 0.647600 57.077683 0.505059 0.355731 0.055456 4.028762 -0.800328 -2.822271 0.000000 0.000000 0.000000 0.122612 -0.415875 -0.775151 -0.290027 -3.199949 0.055723 -4.443992 10.935693 2.378309 8.510709 -6.865735 -0.257550 0.000000 0.000000 0.000000 0.000000 0.000000 0.000000 -1.419946 -1.438343 -0.076710 -1.792202 1.260172 1.074962 16.425435 -4.900790 -10.054119 -30.978398 15.423256 13.004021 0.000000 0.000000 0.000000 0.000000 0.000000 0.000000 0.868019 -2.226969 57.478061 -1.365332 4.135799 -1.575453 2.845980 -3.395527 1.358085 0.000000 0.000000 0.000000 0.142915 -2.175652 56.932483 1.203759 3.043955 -0.809916 17.086611 15.839273 4.537439 0.000000 0.000000 0.000000
-36.882792 78.283656 268.110913 -0.020064 1.710692 -56.721372 0.527175 0.658448 56.720477 0.554967 0.426160 0.045632 4.780056 -1.242974 -3.163060 0.000000 0.000000 0.000000 0.331364 -0.945199 -0.808310 -1.215809 -3.038553 0.214836 -3.945101 11.386832 2.372675 7.666376 -7.373792 -0.226741 0.000000 0.000000 0.000000 0.000000 0.000000 0.000000 -1.376638 -2.056203 -0.056859 -1.896731 1.658252 1.239653 16.699752 -4.321933 -11.028523 -30.323989 13.404930 13.087370 0.000000 0.000000 0.000000 0.000000 0.000000 0.000000 1.474483 -2.673691 57.230529 -1.611043 4.925703 -1.787590 3.194637 -3.844879 1.544215 0.000000 0.000000 0.000000 0.528478 -2.682888 56.568217 1.021874 3.549921 -0.950612 17.460913 15.641450 4.844400 0.000000 0.000000 0.000000
-36.520989 78.318211 268.258991 0.008877 2.117260 -56.286980 0.468037 0.658134 56.278343 0.570979 0.476881 0.039184 5.226707 -1.609047 -3.386459 0.000000 0.000000 0.000000 0.324911 -1.370552 -0.803513 -2.256870 -2.531253 0.433155 -2.601529 10.503836 2.076791 5.651451 -6.769121 -0.278442 0.000000 0.000000 0.000000 0.000000 0.000000 0.000000 -1.389092 -2.569119 -0.044969 -1.918056 2.082646 1.379590 16.988508 -4.322012 -11.616777 -31.283380 13.636585 13.597558 0.000000 0.000000 0.000000 0.000000 0.000000 0.000000 1.951215 -3.195106 56.898181 -1.692854 5.547488 -1.957820 3.425399 -4.161749 1.673674 0.000000 0.000000 0.000000 0.746849 -3.196756 56.111627 0.937322 3.799432 -1.031419 17.768111 15.608679 5.071893 0.000000 0.000000 0.000000
